<svg xmlns="http://www.w3.org/2000/svg" viewBox="0 0 64 64" fill="none">
  <rect width="64" height="64" rx="16" fill="#FAF7F2"/>
  <rect x="2" y="2" width="60" height="60" rx="14" stroke="#8B5E3C" stroke-width="1.5" stroke-opacity="0.3"/>
  <!-- Top Ribbon Bow -->
  <path d="M32 12 C26 5 18 7 22 13 C26 18 32 14 32 14 C32 14 38 18 42 13 C46 7 38 5 32 12 Z" fill="#8B5E3C" fill-opacity="0.3" stroke="#8B5E3C" stroke-width="1.5" stroke-linejoin="round"/>
  <circle cx="32" cy="13" r="1.8" fill="#8B5E3C"/>
  <!-- Heart Accent -->
  <path d="M32 19 C31.2 17.5 28.5 16 28.5 17.8 C28.5 19.5 31.2 21.2 32 22 C32.8 21.2 35.5 19.5 35.5 17.8 C35.5 16 32.8 17.5 32 19 Z" fill="#8B5E3C"/>
  <!-- Arched Cloche Frame -->
  <path d="M12 50V30C12 24 20 18 28 16M36 16C44 18 52 24 52 30V50" stroke="#8B5E3C" stroke-width="2" stroke-linecap="round"/>
  <path d="M15 48V31C15 26 21 21 28 19M36 19C43 21 49 26 49 31V48" stroke="#8B5E3C" stroke-width="1" stroke-linecap="round"/>
  <!-- Bottom Baseline -->
  <path d="M12 50H24M40 50H52" stroke="#8B5E3C" stroke-width="2" stroke-linecap="round"/>
  <!-- Lettering Initials LH -->
  <text x="32" y="38" text-anchor="middle" font-family="'Cormorant Garamond', Georgia, serif" font-size="14" font-weight="bold" fill="#7A4B2A">LH</text>
  <text x="32" y="46" text-anchor="middle" font-family="'Plus Jakarta Sans', sans-serif" font-size="5" font-weight="bold" letter-spacing="1" fill="#8B5E3C">CO</text>
</svg>